<svg xmlns="http://www.w3.org/2000/svg" viewBox="0 0 820 820" style="background:#0a0a0c;font-family:monospace">
<circle cx="640" cy="600" r="3.5" fill="#6b6b78"/>
<text x="645" y="603" fill="#6b6b78" font-size="10">saturn</text>
<circle cx="770" cy="487" r="3.5" fill="#6b6b78"/>
<text x="775" y="490" fill="#6b6b78" font-size="10">cronus</text>
<circle cx="254" cy="449" r="3.5" fill="#6b6b78"/>
<text x="259" y="452" fill="#6b6b78" font-size="10">lead</text>
<circle cx="208" cy="452" r="3.5" fill="#6b6b78"/>
<text x="213" y="455" fill="#6b6b78" font-size="10">black</text>
<circle cx="355" cy="199" r="3.5" fill="#6b6b78"/>
<text x="360" y="202" fill="#6b6b78" font-size="10">melancholy</text>
<circle cx="583" cy="299" r="3.5" fill="#6b6b78"/>
<text x="588" y="302" fill="#6b6b78" font-size="10">scythe</text>
<circle cx="309" cy="396" r="3.5" fill="#6b6b78"/>
<text x="314" y="399" fill="#6b6b78" font-size="10">time</text>
<circle cx="349" cy="377" r="3.5" fill="#6b6b78"/>
<text x="354" y="380" fill="#6b6b78" font-size="10">death</text>
<circle cx="377" cy="512" r="3.5" fill="#6b6b78"/>
<text x="382" y="515" fill="#6b6b78" font-size="10">goat</text>
<circle cx="614" cy="662" r="3.5" fill="#5a7fd4"/>
<text x="619" y="665" fill="#5a7fd4" font-size="10">jupiter</text>
<circle cx="701" cy="579" r="3.5" fill="#5a7fd4"/>
<text x="706" y="582" fill="#5a7fd4" font-size="10">zeus</text>
<circle cx="290" cy="375" r="3.5" fill="#5a7fd4"/>
<text x="295" y="378" fill="#5a7fd4" font-size="10">tin</text>
<circle cx="228" cy="487" r="3.5" fill="#5a7fd4"/>
<text x="233" y="490" fill="#5a7fd4" font-size="10">blue</text>
<circle cx="453" cy="278" r="3.5" fill="#5a7fd4"/>
<text x="458" y="281" fill="#5a7fd4" font-size="10">jovial</text>
<circle cx="518" cy="250" r="3.5" fill="#5a7fd4"/>
<text x="523" y="253" fill="#5a7fd4" font-size="10">throne</text>
<circle cx="435" cy="215" r="3.5" fill="#5a7fd4"/>
<text x="440" y="218" fill="#5a7fd4" font-size="10">expansion</text>
<circle cx="434" cy="380" r="3.5" fill="#5a7fd4"/>
<text x="439" y="383" fill="#5a7fd4" font-size="10">thunder</text>
<circle cx="381" cy="443" r="3.5" fill="#5a7fd4"/>
<text x="386" y="446" fill="#5a7fd4" font-size="10">eagle</text>
<circle cx="448" cy="604" r="3.5" fill="#d45a5a"/>
<text x="453" y="607" fill="#d45a5a" font-size="10">mars</text>
<circle cx="756" cy="406" r="3.5" fill="#d45a5a"/>
<text x="761" y="409" fill="#d45a5a" font-size="10">ares</text>
<circle cx="209" cy="489" r="3.5" fill="#d45a5a"/>
<text x="214" y="492" fill="#d45a5a" font-size="10">iron</text>
<circle cx="182" cy="459" r="3.5" fill="#d45a5a"/>
<text x="187" y="462" fill="#d45a5a" font-size="10">red</text>
<circle cx="576" cy="177" r="3.5" fill="#d45a5a"/>
<text x="581" y="180" fill="#d45a5a" font-size="10">wrath</text>
<circle cx="438" cy="326" r="3.5" fill="#d45a5a"/>
<text x="443" y="329" fill="#d45a5a" font-size="10">sword</text>
<circle cx="355" cy="307" r="3.5" fill="#d45a5a"/>
<text x="360" y="310" fill="#d45a5a" font-size="10">war</text>
<circle cx="219" cy="349" r="3.5" fill="#d45a5a"/>
<text x="224" y="352" fill="#d45a5a" font-size="10">blood</text>
<circle cx="422" cy="322" r="3.5" fill="#d45a5a"/>
<text x="427" y="325" fill="#d45a5a" font-size="10">ram</text>
<circle cx="328" cy="575" r="3.5" fill="#c4a35a"/>
<text x="333" y="578" fill="#c4a35a" font-size="10">sun</text>
<circle cx="479" cy="659" r="3.5" fill="#c4a35a"/>
<text x="484" y="662" fill="#c4a35a" font-size="10">apollo</text>
<circle cx="235" cy="517" r="3.5" fill="#c4a35a"/>
<text x="240" y="520" fill="#c4a35a" font-size="10">gold</text>
<circle cx="217" cy="440" r="3.5" fill="#c4a35a"/>
<text x="222" y="443" fill="#c4a35a" font-size="10">yellow</text>
<circle cx="490" cy="213" r="3.5" fill="#c4a35a"/>
<text x="495" y="216" fill="#c4a35a" font-size="10">glory</text>
<circle cx="405" cy="259" r="3.5" fill="#c4a35a"/>
<text x="410" y="262" fill="#c4a35a" font-size="10">crown</text>
<circle cx="209" cy="397" r="3.5" fill="#c4a35a"/>
<text x="214" y="400" fill="#c4a35a" font-size="10">light</text>
<circle cx="408" cy="456" r="3.5" fill="#c4a35a"/>
<text x="413" y="459" fill="#c4a35a" font-size="10">lion</text>
<circle cx="410" cy="332" r="3.5" fill="#c4a35a"/>
<text x="415" y="335" fill="#c4a35a" font-size="10">laurel</text>
<circle cx="568" cy="602" r="3.5" fill="#5ad48a"/>
<text x="573" y="605" fill="#5ad48a" font-size="10">venus</text>
<circle cx="605" cy="523" r="3.5" fill="#5ad48a"/>
<text x="610" y="526" fill="#5ad48a" font-size="10">aphrodite</text>
<circle cx="274" cy="565" r="3.5" fill="#5ad48a"/>
<text x="279" y="568" fill="#5ad48a" font-size="10">copper</text>
<circle cx="197" cy="489" r="3.5" fill="#5ad48a"/>
<text x="202" y="492" fill="#5ad48a" font-size="10">green</text>
<circle cx="297" cy="358" r="3.5" fill="#5ad48a"/>
<text x="302" y="361" fill="#5ad48a" font-size="10">love</text>
<circle cx="411" cy="252" r="3.5" fill="#5ad48a"/>
<text x="416" y="255" fill="#5ad48a" font-size="10">mirror</text>
<circle cx="286" cy="352" r="3.5" fill="#5ad48a"/>
<text x="291" y="355" fill="#5ad48a" font-size="10">beauty</text>
<circle cx="473" cy="380" r="3.5" fill="#5ad48a"/>
<text x="478" y="383" fill="#5ad48a" font-size="10">dove</text>
<circle cx="279" cy="453" r="3.5" fill="#5ad48a"/>
<text x="284" y="456" fill="#5ad48a" font-size="10">rose</text>
<circle cx="492" cy="630" r="3.5" fill="#d4845a"/>
<text x="497" y="633" fill="#d4845a" font-size="10">mercury</text>
<circle cx="639" cy="473" r="3.5" fill="#d4845a"/>
<text x="644" y="476" fill="#d4845a" font-size="10">hermes</text>
<circle cx="413" cy="447" r="3.5" fill="#d4845a"/>
<text x="418" y="450" fill="#d4845a" font-size="10">quicksilver</text>
<circle cx="215" cy="451" r="3.5" fill="#d4845a"/>
<text x="220" y="454" fill="#d4845a" font-size="10">orange</text>
<circle cx="419" cy="226" r="3.5" fill="#d4845a"/>
<text x="424" y="229" fill="#d4845a" font-size="10">wit</text>
<circle cx="654" cy="429" r="3.5" fill="#d4845a"/>
<text x="659" y="432" fill="#d4845a" font-size="10">caduceus</text>
<circle cx="334" cy="245" r="3.5" fill="#d4845a"/>
<text x="339" y="248" fill="#d4845a" font-size="10">speech</text>
<circle cx="568" cy="203" r="3.5" fill="#d4845a"/>
<text x="573" y="206" fill="#d4845a" font-size="10">trickster</text>
<circle cx="582" cy="339" r="3.5" fill="#d4845a"/>
<text x="587" y="342" fill="#d4845a" font-size="10">ibis</text>
<circle cx="403" cy="625" r="3.5" fill="#cccccc"/>
<text x="408" y="628" fill="#cccccc" font-size="10">moon</text>
<circle cx="444" cy="403" r="3.5" fill="#cccccc"/>
<text x="449" y="406" fill="#cccccc" font-size="10">diana</text>
<circle cx="218" cy="518" r="3.5" fill="#cccccc"/>
<text x="223" y="521" fill="#cccccc" font-size="10">silver</text>
<circle cx="175" cy="438" r="3.5" fill="#cccccc"/>
<text x="180" y="441" fill="#cccccc" font-size="10">white</text>
<circle cx="368" cy="286" r="3.5" fill="#cccccc"/>
<text x="373" y="289" fill="#cccccc" font-size="10">dream</text>
<circle cx="513" cy="127" r="3.5" fill="#cccccc"/>
<text x="518" y="130" fill="#cccccc" font-size="10">veil</text>
<circle cx="426" cy="438" r="3.5" fill="#cccccc"/>
<text x="431" y="441" fill="#cccccc" font-size="10">tides</text>
<circle cx="534" cy="454" r="3.5" fill="#cccccc"/>
<text x="539" y="457" fill="#cccccc" font-size="10">crab</text>
<circle cx="356" cy="398" r="3.5" fill="#cccccc"/>
<text x="361" y="401" fill="#cccccc" font-size="10">pearl</text>
<circle cx="20" cy="20" r="4" fill="#6b6b78"/><text x="30" y="24" fill="#6b6b78" font-size="11">saturn</text>
<circle cx="20" cy="38" r="4" fill="#5a7fd4"/><text x="30" y="42" fill="#5a7fd4" font-size="11">jupiter</text>
<circle cx="20" cy="56" r="4" fill="#d45a5a"/><text x="30" y="60" fill="#d45a5a" font-size="11">mars</text>
<circle cx="20" cy="74" r="4" fill="#c4a35a"/><text x="30" y="78" fill="#c4a35a" font-size="11">sol</text>
<circle cx="20" cy="92" r="4" fill="#5ad48a"/><text x="30" y="96" fill="#5ad48a" font-size="11">venus</text>
<circle cx="20" cy="110" r="4" fill="#d4845a"/><text x="30" y="114" fill="#d4845a" font-size="11">mercury</text>
<circle cx="20" cy="128" r="4" fill="#cccccc"/><text x="30" y="132" fill="#cccccc" font-size="11">luna</text>
</svg>